<?xml version="1.0" standalone="no"?><svg xmlns="http://www.w3.org/2000/svg" viewBox="0 0 1440 320"><path fill="#94618e" fill-opacity="1" d="M0,192L24,213.3C48,235,96,277,144,277.3C192,277,240,235,288,202.7C336,171,384,149,432,154.7C480,160,528,192,576,202.7C624,213,672,203,720,208C768,213,816,235,864,218.7C912,203,960,149,1008,117.3C1056,85,1104,75,1152,96C1200,117,1248,171,1296,165.3C1344,160,1392,96,1416,64L1440,32L1440,320L1416,320C1392,320,1344,320,1296,320C1248,320,1200,320,1152,320C1104,320,1056,320,1008,320C960,320,912,320,864,320C816,320,768,320,720,320C672,320,624,320,576,320C528,320,480,320,432,320C384,320,336,320,288,320C240,320,192,320,144,320C96,320,48,320,24,320L0,320Z"></path></svg>