<?xml version="1.0" standalone="no"?><svg xmlns="http://www.w3.org/2000/svg" viewBox="0 0 1440 320"><path fill="#88d317" fill-opacity="1" d="M0,256L17.1,224C34.3,192,69,128,103,138.7C137.1,149,171,235,206,266.7C240,299,274,277,309,245.3C342.9,213,377,171,411,128C445.7,85,480,43,514,32C548.6,21,583,43,617,58.7C651.4,75,686,85,720,74.7C754.3,64,789,32,823,64C857.1,96,891,192,926,229.3C960,267,994,245,1029,245.3C1062.9,245,1097,267,1131,256C1165.7,245,1200,203,1234,181.3C1268.6,160,1303,160,1337,138.7C1371.4,117,1406,75,1423,53.3L1440,32L1440,320L1422.9,320C1405.7,320,1371,320,1337,320C1302.9,320,1269,320,1234,320C1200,320,1166,320,1131,320C1097.1,320,1063,320,1029,320C994.3,320,960,320,926,320C891.4,320,857,320,823,320C788.6,320,754,320,720,320C685.7,320,651,320,617,320C582.9,320,549,320,514,320C480,320,446,320,411,320C377.1,320,343,320,309,320C274.3,320,240,320,206,320C171.4,320,137,320,103,320C68.6,320,34,320,17,320L0,320Z"></path></svg>