<?xml version="1.0" standalone="no"?><svg xmlns="http://www.w3.org/2000/svg" viewBox="0 0 1440 320"><path fill="#88d317" fill-opacity="1" d="M0,256L16,234.7C32,213,64,171,96,144C128,117,160,107,192,101.3C224,96,256,96,288,122.7C320,149,352,203,384,240C416,277,448,299,480,288C512,277,544,235,576,218.7C608,203,640,213,672,202.7C704,192,736,160,768,170.7C800,181,832,235,864,240C896,245,928,203,960,208C992,213,1024,267,1056,288C1088,309,1120,299,1152,277.3C1184,256,1216,224,1248,181.3C1280,139,1312,85,1344,80C1376,75,1408,117,1424,138.7L1440,160L1440,0L1424,0C1408,0,1376,0,1344,0C1312,0,1280,0,1248,0C1216,0,1184,0,1152,0C1120,0,1088,0,1056,0C1024,0,992,0,960,0C928,0,896,0,864,0C832,0,800,0,768,0C736,0,704,0,672,0C640,0,608,0,576,0C544,0,512,0,480,0C448,0,416,0,384,0C352,0,320,0,288,0C256,0,224,0,192,0C160,0,128,0,96,0C64,0,32,0,16,0L0,0Z"></path></svg>